<svg viewBox="0 0 auto auto" height="70" width="70">
  <defs/>
  <mask id="0c83d95f-99d1-4861-b06f-06ba3b0f0e04">
    <g id="SvgjsG4156">
      <svg viewBox="0 0 215 220" height="215" width="215">
        <g>
          <svg viewBox="0 0 500 500" height="150" width="150">
            <g>
              <svg>
                <g>
                  <svg/>
                </g>
                <g id="SvgjsG4153">
                  <svg>
                    <g>
                      <path d="M0 114.663c0-63.327 51.336-114.663 114.663-114.663 63.327 0 114.663 51.336 114.664 114.663 0 63.327-51.336 114.663-114.664 114.664-63.327 0-114.663-51.336-114.663-114.664zM114.663 223.315c60.007 0 108.652-48.645 108.652-108.652 0-60.007-48.645-108.652-108.652-108.651-60.007 0-108.652 48.645-108.651 108.651 0 60.007 48.645 108.652 108.651 108.652z" fill="white" stroke="transparent"/>
                    </g>
                    <g transform="matrix(1,0,0,1,71.58765878573604,46.47686594282615)">
                      <svg viewBox="0 0 86.15122046623722 136.372806152057" height="136.372806152057" width="80">
                        <g>
                          <svg xmlns="http://www.w3.org/2000/svg" xml:space="preserve" viewBox="18.413007736206055 -0.0010693755466490984 63.173988342285156 100.00106811523438" x="0" y="0" class="icon-b-0" data-fill-palette-color="accent" id="SvgjsSvg4152">
                            <path d="M45.021 20.303v-0.134h13.935v0.134l0.802 0.357h2.553v-3.89h-2.553l-0.802 0.357v0.135h-4.844V6.139l-0.715-1.647a2.468 2.468 0 1 0-2.82 0.001l-0.715 1.646v11.124h-4.841v-0.135l-0.802-0.357h-2.553v3.89h2.553zM48.462 21.045l0.774 31.917 4.128-2.652 1.41 1.184 0.739-30.449h-4.111z" fill="white"/>
                            <path d="M77.099 75.307l-7.644-5.237 1.869-6.414-11.491-6.146-6.68-5.613-7.482 4.811-10.424 3.475-7.481 10.422 1.604 5.879-6.949 3.475-4.008 12.828L22.956 100h53.019l5.612-13.362zM44.778 87.586l-8.33 2.181-3.152 8.011 2.084-9.125 8.634-2.26 5.759-5.975z m14.777-10.522l-7.039-1.789-1.211-5.687-6.54-3.271-7.588 4.018-3.019 8.525-8.202 4.103-2.881 9.214 1.865 4.227-3.338-4.035 3.237-10.355 8.229-4.115 3.012-8.509 8.667-4.587 7.742 3.871 1.17 5.501 7.005 1.78 1.47 8.529z m14.053 1.028l-9.119-6.25 1.767-6.055-8.449-5.284 10.05 4.61-1.8 6.17 8.653 5.93 2.992 9.386z" fill="white"/>
                          </svg>
                        </g>
                      </svg>
                    </g>
                  </svg>
                </g>
              </svg>
            </g>
          </svg>
        </g>
        <defs/>
      </svg>
    </g>
  </mask>
  <linearGradient x1="0.054" x2="0.6" y1="0.5" y2="0.4" id="db1a1289-b36d-4177-a50e-1b2170b784f8">
    <stop stop-color="#0f3054" offset="0"/>
    <stop stop-color="#3b8dcb" offset="0.498"/>
    <stop stop-color="#0f3054" offset="1"/>
  </linearGradient>
  <rect viewBox="0 0 100 100" height="200" width="200" fill="url(#db1a1289-b36d-4177-a50e-1b2170b784f8)" mask="url(#0c83d95f-99d1-4861-b06f-06ba3b0f0e04)" data-fill-palette-color="accent" style="width: 200px;"/>
</svg>
