<svg width="464" height="320" viewBox="0 0 464 320" fill="none" xmlns="http://www.w3.org/2000/svg">
<g clip-path="url(#clip0)">
<path opacity="0.1" d="M3.56102 168.465C11.7554 155.08 30.2863 157.413 43.4274 164.4C56.5685 171.387 69.6812 181.817 84.1433 179.813C96.3373 178.122 106.336 167.489 111.738 155.222C117.14 142.955 118.726 129.123 120.246 115.575C122.156 98.555 124.065 81.524 125.973 64.4821C126.672 58.251 127.497 51.6743 131.001 46.7438C135.631 40.2404 144.118 38.2405 151.377 40.1956C158.637 42.1508 164.827 47.3942 170.123 53.2433C187.089 71.9733 196.702 97.2922 211.534 118.136C214.554 122.379 217.965 126.574 222.476 128.623C228.98 131.57 236.447 129.484 242.8 126.204C263.53 115.518 277.455 93.7112 291.141 73.3634C297.799 63.4741 305.916 52.8978 316.992 51.8206C328.646 50.6622 338.763 60.5922 345.612 71.1075C367.594 104.942 372.305 151.133 398.859 180.643C402.156 184.301 405.794 187.683 409.984 189.955C411.366 190.702 412.807 191.334 414.293 191.845C437.461 199.864 445.184 232.057 428.048 251.144C427.678 251.551 427.3 251.957 426.918 252.364C424.373 255.051 421.491 257.591 418.053 258.392C414.854 259.131 411.549 258.278 408.379 257.355C388.112 251.441 368.09 242.401 347.136 242.84C326.748 243.247 307.408 252.665 287.247 256.055C273.691 258.335 259.9 257.88 246.194 257.388C200.545 255.746 154.905 253.835 109.275 251.657C86.6268 250.616 63.9703 249.624 41.326 248.466C23.8804 247.559 12.7675 245.564 10.7433 225.317C8.97111 207.587 -6.94617 185.634 3.56102 168.465Z" fill="#44406D"/>
<path d="M321.068 320C381.677 320 430.811 313.134 430.811 304.664C430.811 296.194 381.677 289.328 321.068 289.328C260.459 289.328 211.326 296.194 211.326 304.664C211.326 313.134 260.459 320 321.068 320Z" fill="#30374E"/>
<path d="M60.458 238.503C60.458 238.503 65.8234 237.284 69.3393 240.889C69.3393 240.889 67.0794 242.921 61.7628 240.67L60.458 238.503Z" fill="#44406D"/>
<path d="M59.8644 238.45C59.8644 238.45 56.6858 242.954 58.7019 247.576C58.7019 247.576 61.4496 246.255 61.3724 240.483L59.8644 238.45Z" fill="#44406D"/>
<path d="M56.2881 231.662C56.2881 231.662 58.1944 227.537 67.2627 232.524C67.2627 232.524 66.2872 235.28 62.4339 235.32C58.5806 235.361 57.4262 233.691 56.2881 231.662Z" fill="#44406D"/>
<path d="M55.7106 231.41C55.7106 231.41 51.1704 231.199 51.4265 241.539C51.4265 241.539 54.3246 241.946 56.1333 238.54C57.9421 235.134 56.9829 233.374 55.7106 231.41Z" fill="#44406D"/>
<path d="M52.5479 223.362C52.5479 223.362 54.5802 216.176 64.12 220.566C64.12 220.566 62.4535 227.147 53.6331 225.704L52.5479 223.362Z" fill="#44406D"/>
<path d="M49.0078 213.062C49.0078 213.062 53.3082 205.648 62.214 211.664C62.214 211.664 59.6979 218.521 49.902 215.546L49.0078 213.062Z" fill="#44406D"/>
<path d="M47.3252 203.144C47.3252 203.144 52.4589 196.255 61.2914 202.206C61.2914 202.206 56.3894 208.278 47.4349 204.807L47.3252 203.144Z" fill="#44406D"/>
<path d="M45.8047 193.503C45.8047 193.503 50.9912 186.325 59.4579 192.223C59.4579 192.223 53.491 198.657 45.9104 195.096L45.8047 193.503Z" fill="#44406D"/>
<path d="M45.7314 184.862C45.7314 184.862 51.0765 175.704 59.0026 181.134C59.0026 181.134 53.1414 189.089 45.8453 186.524L45.7314 184.862Z" fill="#44406D"/>
<path d="M46.4512 174.708C46.4512 174.708 52.1417 165.603 59.9012 171.79C59.9012 171.79 52.9506 179.817 46.5406 176.322L46.4512 174.708Z" fill="#44406D"/>
<path d="M47.9271 165.579C47.9271 165.579 54.837 156.917 61.564 159.738C61.564 159.738 54.3777 168.924 47.7441 167.77L47.9271 165.579Z" fill="#44406D"/>
<path d="M49.9586 156.88C49.9586 156.88 57.901 146.312 63.116 149.312C63.116 149.312 57.2994 157.478 49.4668 158.803L49.9586 156.88Z" fill="#44406D"/>
<path d="M53.0557 146.743C53.0557 146.743 60.0348 138.077 65.6562 139.736C65.6562 139.736 59.7828 148.633 52.2021 149.361L53.0557 146.743Z" fill="#44406D"/>
<path d="M55.8407 137.268C55.8407 137.268 63.6368 128.895 67.3478 130.025C67.3478 130.025 61.9215 139.114 55.5928 139.028L55.8407 137.268Z" fill="#44406D"/>
<path d="M58.5928 128.505C58.5928 128.505 65.1328 118.689 69.0878 119.156C69.0878 119.156 65.3036 127.769 58.6578 129.452L58.5928 128.505Z" fill="#44406D"/>
<path d="M61.4338 116.754C61.4338 116.754 67.2829 109.169 70.7053 108.958C70.7053 108.958 66.3521 118.851 61.3281 119.119L61.4338 116.754Z" fill="#44406D"/>
<path d="M63.0596 108.946L68.173 93.6259C68.173 93.6259 69.3924 107.08 62.4824 111.762L63.0596 108.946Z" fill="#44406D"/>
<path d="M64.4371 92.3373C64.4371 92.3373 64.6159 79.8222 63.8965 78.8548C63.8965 78.8548 68.9651 88.9108 64.7663 97.8409L64.4371 92.3373Z" fill="#44406D"/>
<path d="M52.2879 223.212C52.2879 223.212 45.6788 219.708 42.2197 229.606C42.2197 229.606 48.1135 232.971 53.1944 225.618L52.2879 223.212Z" fill="#44406D"/>
<path d="M48.7761 212.676C48.7761 212.676 40.7605 209.648 37.6592 219.944C37.6592 219.944 43.9472 223.663 49.654 215.164L48.7761 212.676Z" fill="#44406D"/>
<path d="M47.0043 203.766C47.0043 203.766 40.9927 197.625 33.0381 204.713C33.0381 204.713 38.7043 210.075 47.1141 205.441L47.0043 203.766Z" fill="#44406D"/>
<path d="M45.6141 193.519C45.6141 193.519 39.5171 187.093 31.9121 194.072C31.9121 194.072 38.6839 199.653 45.732 195.109L45.6141 193.519Z" fill="#44406D"/>
<path d="M45.7474 185.106C45.7474 185.106 41.13 175.566 32.8096 180.362C32.8096 180.362 38.0367 188.747 45.5076 186.76L45.7474 185.106Z" fill="#44406D"/>
<path d="M46.9269 174.635C46.9269 174.635 42.3216 164.92 33.8955 170.135C33.8955 170.135 39.8543 178.919 46.6342 176.204L46.9269 174.635Z" fill="#44406D"/>
<path d="M48.7676 165.571C48.7676 165.571 46.4752 154.738 39.1953 154.242C39.1953 154.242 41.5041 165.676 47.9384 167.607L48.7676 165.571Z" fill="#44406D"/>
<path d="M50.146 156.888C50.146 156.888 48.6542 143.756 42.6426 143.695C42.6426 143.695 43.5165 153.681 49.5972 158.795L50.146 156.888Z" fill="#44406D"/>
<path d="M53.6534 146.324C53.6534 146.324 51.1292 135.488 45.333 134.537C45.333 134.537 46.7556 145.105 53.2713 149.056L53.6534 146.324Z" fill="#44406D"/>
<path d="M56.5237 137.301C56.5237 137.301 55.7107 125.891 52.0932 124.448C52.0932 124.448 50.6258 134.927 55.6091 138.829L56.5237 137.301Z" fill="#44406D"/>
<path d="M58.8523 128.363C58.8523 128.363 57.572 116.636 53.8487 115.226C53.8487 115.226 53.239 124.611 58.3605 129.167L58.8523 128.363Z" fill="#44406D"/>
<path d="M62.0023 117.656C62.0023 117.656 61.3357 108.1 58.6083 106.027C58.6083 106.027 56.7467 116.673 60.7829 119.668L62.0023 117.656Z" fill="#44406D"/>
<path d="M62.7098 108.494L59.1329 92.7479C59.1329 92.7479 56.6006 106.015 63.0228 111.356L62.7098 108.494Z" fill="#44406D"/>
<path d="M62.1534 92.6422C62.1534 92.6422 54.9874 82.3667 55.0443 81.1717C55.0443 81.1717 56.4832 92.3414 64.9662 97.3857L62.1534 92.6422Z" fill="#44406D"/>
<path d="M62.7103 89.4351C62.7103 89.4351 55.6134 74.6438 52.7803 73.5829C52.7803 73.5829 61.7591 77.4159 63.1899 88.9474L62.7103 89.4351Z" fill="#44406D"/>
<path d="M61.3039 119.197L60.8975 119.095C64.9012 102.023 65.4662 91.2601 62.4827 88.7888L62.7591 88.4555C65.9051 91.0732 65.4092 101.706 61.3039 119.197Z" fill="#444053"/>
<path d="M49.8087 159.299L49.1787 159.124C49.6218 157.555 50.1014 155.958 50.6135 154.385C55.0847 140.679 58.7998 127.964 61.0801 118.233L61.5963 117.929C59.3119 127.684 55.6985 140.866 51.2354 154.584C50.7274 156.153 50.2477 157.738 49.8087 159.299Z" fill="#444053"/>
<path d="M68.9334 250.51C68.844 250.425 59.9017 241.621 53.0324 226.025C49.0075 216.896 46.4544 207.187 45.468 197.259C44.2486 184.849 45.9151 170.786 49.5327 157.872L50.053 158.409C41.9236 187.394 47.5369 211.388 53.8047 225.638C60.6049 241.084 69.4455 249.803 69.535 249.888L68.9334 250.51Z" fill="#444053"/>
<path d="M78.7773 204.088C78.7773 204.088 82.0291 203.344 84.1508 205.531C84.1508 205.531 82.781 206.75 79.57 205.396L78.7773 204.088Z" fill="#44406D"/>
<path d="M78.4241 204.059C78.4241 204.059 76.5056 206.782 77.725 209.575C77.725 209.575 79.3834 208.762 79.3509 205.287L78.4241 204.059Z" fill="#44406D"/>
<path d="M76.2617 199.95C76.2617 199.95 77.412 197.458 82.8871 200.474C82.8871 200.474 82.2978 202.137 79.9687 202.161C77.6396 202.185 76.9568 201.177 76.2617 199.95Z" fill="#44406D"/>
<path d="M75.912 199.799C75.912 199.799 73.1643 199.673 73.3188 205.921C73.3188 205.921 75.0707 206.165 76.1641 204.108C77.2574 202.051 76.6803 200.986 75.912 199.799Z" fill="#44406D"/>
<path d="M73.9893 194.934C73.9893 194.934 75.2371 190.589 80.9927 193.235C80.9927 193.235 79.9887 197.214 74.6559 196.34L73.9893 194.934Z" fill="#44406D"/>
<path d="M71.8594 188.707C71.8594 188.707 74.4567 184.236 79.8424 187.861C79.8424 187.861 78.3182 192.007 72.4 190.207L71.8594 188.707Z" fill="#44406D"/>
<path d="M70.8389 182.711C70.8389 182.711 73.9443 178.545 79.2812 182.142C79.2812 182.142 76.3221 185.801 70.908 183.715L70.8389 182.711Z" fill="#44406D"/>
<path d="M69.9209 176.883C69.9209 176.883 73.0588 172.542 78.1763 176.11C78.1763 176.11 74.5709 180 69.9859 177.846L69.9209 176.883Z" fill="#44406D"/>
<path d="M69.8799 171.655C69.8799 171.655 73.1316 166.123 77.8995 169.404C77.8995 169.404 74.3551 174.212 69.9449 172.655L69.8799 171.655Z" fill="#44406D"/>
<path d="M70.3027 165.522C70.3027 165.522 73.7536 160.014 78.4321 163.742C78.4321 163.742 74.2292 168.595 70.3515 166.481L70.3027 165.522Z" fill="#44406D"/>
<path d="M71.2051 160.002C71.2051 160.002 75.3796 154.767 79.4483 156.474C79.4483 156.474 75.1032 162.026 71.1035 161.327L71.2051 160.002Z" fill="#44406D"/>
<path d="M72.4325 154.742C72.4325 154.742 77.2329 148.357 80.3871 150.166C80.3871 150.166 76.8711 155.104 72.1357 155.905L72.4325 154.742Z" fill="#44406D"/>
<path d="M74.3068 148.621C74.3068 148.621 78.5259 143.382 81.9321 144.386C81.9321 144.386 78.3836 149.763 73.8027 150.202L74.3068 148.621Z" fill="#44406D"/>
<path d="M75.9893 142.886C75.9893 142.886 80.7002 137.825 82.9439 138.508C82.9439 138.508 79.6678 143.999 75.8389 143.951L75.9893 142.886Z" fill="#44406D"/>
<path d="M77.6514 137.589C77.6514 137.589 81.6063 131.655 83.9963 131.931C83.9963 131.931 81.712 137.138 77.692 138.158L77.6514 137.589Z" fill="#44406D"/>
<path d="M79.3746 130.484C79.3746 130.484 82.9109 125.899 84.9798 125.769C84.9798 125.769 82.3459 131.753 79.3096 131.903L79.3746 130.484Z" fill="#44406D"/>
<path d="M80.3551 125.761L83.4402 116.51C83.4402 116.51 84.1718 124.639 79.9893 127.485L80.3551 125.761Z" fill="#44406D"/>
<path d="M81.1876 115.721C81.1876 115.721 81.2933 108.157 80.8584 107.572C80.8584 107.572 83.9232 113.648 81.3827 119.05L81.1876 115.721Z" fill="#44406D"/>
<path d="M73.8392 194.844C73.8392 194.844 69.8477 192.723 67.7422 198.706C67.7422 198.706 71.3069 200.738 74.3798 196.3L73.8392 194.844Z" fill="#44406D"/>
<path d="M71.721 188.455C71.721 188.455 66.8719 186.626 64.998 192.849C64.998 192.849 68.7985 195.097 72.2494 189.963L71.721 188.455Z" fill="#44406D"/>
<path d="M70.6445 183.085C70.6445 183.085 67.0147 179.374 62.2021 183.654C62.2021 183.654 65.6287 186.906 70.7136 184.093L70.6445 183.085Z" fill="#44406D"/>
<path d="M69.8073 176.891C69.8073 176.891 66.1206 173.009 61.5234 177.228C61.5234 177.228 65.6166 180.598 69.8723 177.854L69.8073 176.891Z" fill="#44406D"/>
<path d="M69.888 171.79C69.888 171.79 67.0955 166.022 62.0635 168.92C62.0635 168.92 65.2258 173.989 69.7416 172.79L69.888 171.79Z" fill="#44406D"/>
<path d="M70.5995 165.469C70.5995 165.469 67.8152 159.596 62.71 162.75C62.71 162.75 66.3113 168.062 70.4125 166.408L70.5995 165.469Z" fill="#44406D"/>
<path d="M71.7129 160.002C71.7129 160.002 70.3268 153.45 65.9248 153.153C65.9248 153.153 67.319 160.063 71.2089 161.23L71.7129 160.002Z" fill="#44406D"/>
<path d="M72.5466 154.746C72.5466 154.746 71.6523 146.808 67.9941 146.767C67.9941 146.767 68.5225 152.808 72.197 155.901L72.5466 154.746Z" fill="#44406D"/>
<path d="M74.6638 148.361C74.6638 148.361 73.1395 141.809 69.6357 141.231C69.6357 141.231 70.4975 147.617 74.4361 150.007L74.6638 148.361Z" fill="#44406D"/>
<path d="M76.3999 142.906C76.3999 142.906 75.9 135.996 73.7254 135.134C73.7254 135.134 72.8352 141.471 75.8472 143.829L76.3999 142.906Z" fill="#44406D"/>
<path d="M77.8103 137.5C77.8103 137.5 77.038 130.411 74.7862 129.558C74.7862 129.558 74.4163 135.248 77.5136 137.988L77.8103 137.5Z" fill="#44406D"/>
<path d="M79.7127 131.029C79.7127 131.029 79.3063 125.253 77.6804 123.997C77.6804 123.997 76.5545 130.436 78.9933 132.244L79.7127 131.029Z" fill="#44406D"/>
<path d="M80.1511 125.489L77.9887 115.969C77.9887 115.969 76.4563 123.993 80.3381 127.22L80.1511 125.489Z" fill="#44406D"/>
<path d="M79.8063 115.908C79.8063 115.908 75.4774 109.702 75.5099 108.974C75.5099 108.974 76.3757 115.726 81.5053 118.774L79.8063 115.908Z" fill="#44406D"/>
<path d="M80.1314 113.965C80.1314 113.965 75.8392 105.023 74.1279 104.393C74.1279 104.393 79.5583 106.71 80.42 113.685L80.1314 113.965Z" fill="#44406D"/>
<path d="M79.2893 131.956L79.0332 131.895C81.472 121.575 81.7972 115.067 79.9925 113.575L80.1591 113.372C82.0736 114.957 81.7728 121.388 79.2893 131.956Z" fill="#444053"/>
<path d="M72.343 156.206L71.9609 156.096C72.2292 155.149 72.5219 154.185 72.8308 153.251C75.5257 144.963 77.7775 137.276 79.1554 131.395L79.4684 131.208C78.0864 137.102 75.9037 145.077 73.2047 153.373C72.8958 154.311 72.6072 155.259 72.343 156.206Z" fill="#444053"/>
<path d="M83.9029 211.347C83.8501 211.294 78.4441 205.974 74.29 196.543C71.8585 191.025 70.3152 185.156 69.7172 179.155C68.9734 171.651 69.9895 163.148 72.1804 155.34L72.4934 155.665C67.5792 173.188 70.9732 187.695 74.7615 196.312C78.8749 205.661 84.2159 210.916 84.2728 210.969L83.9029 211.347Z" fill="#444053"/>
<path d="M96.1292 231.67C95.086 231.856 94.0646 232.147 93.0807 232.54C71.1558 241.296 71.5216 298.608 71.5216 298.608H65.0669C65.0669 298.608 63.0346 274.012 54.1777 238.922C46.1987 207.351 78.9234 179.057 85.5692 173.692C86.3171 173.094 86.7317 172.777 86.7317 172.777C119.692 184.89 96.1292 231.67 96.1292 231.67Z" fill="#AFC0E0"/>
<path opacity="0.2" d="M89.13 173.773C88.3699 173.424 87.5854 173.09 86.7522 172.785C86.7522 172.785 86.3457 173.102 85.5897 173.7C78.9439 179.065 46.2192 207.36 54.1982 238.93C63.0551 274.02 65.0671 298.608 65.0671 298.608H68.6969C68.6969 298.608 66.6849 274.012 57.8076 238.922C49.8611 207.498 82.2688 179.309 89.13 173.773Z" fill="white"/>
<path d="M204.876 238.93C195.999 274.02 193.999 298.608 193.999 298.608H187.532C187.532 298.608 187.939 238.71 164.473 232.024C163.965 231.872 163.448 231.751 162.925 231.662C162.925 231.662 139.35 184.882 172.322 172.777C172.322 172.777 172.656 173.025 173.257 173.509C179.366 178.399 212.945 206.994 204.876 238.93Z" fill="#AFC0E0"/>
<path opacity="0.1" d="M96.1294 231.67C95.0862 231.856 94.0647 232.147 93.0809 232.54C89.1169 213.141 86.6061 193.473 85.5693 173.7C86.3172 173.102 86.7318 172.785 86.7318 172.785C119.692 184.89 96.1294 231.67 96.1294 231.67Z" fill="black"/>
<path opacity="0.1" d="M173.269 173.517C171.925 193.233 168.987 212.807 164.485 232.048C163.977 231.896 163.46 231.775 162.937 231.687C162.937 231.687 139.361 184.906 172.334 172.802C172.322 172.785 172.655 173.033 173.269 173.517Z" fill="black"/>
<path d="M161.201 240.54C158.925 249.52 156.257 258.733 153.198 268.179C153.198 268.179 138.679 283.304 103.609 268.179C103.609 268.179 100.105 258.302 96.2515 241.511C87.7685 204.592 77.5946 134.236 99.2715 61.9701C105.727 40.2455 114.902 19.4238 126.578 0C126.578 0 145.097 21.2623 158.689 61.9579C172.281 102.653 180.931 162.79 161.201 240.54Z" fill="#E3E8F4"/>
<path d="M129.525 148.454C145.605 148.454 158.641 135.419 158.641 119.339C158.641 103.259 145.605 90.2237 129.525 90.2237C113.446 90.2237 100.41 103.259 100.41 119.339C100.41 135.419 113.446 148.454 129.525 148.454Z" fill="#AFC0E0"/>
<path d="M150.174 119.355C150.174 123.265 149.064 127.095 146.972 130.399C144.881 133.703 141.894 136.345 138.36 138.018C134.826 139.691 130.889 140.326 127.008 139.849C123.127 139.373 119.461 137.804 116.437 135.325C114.961 134.11 113.659 132.697 112.568 131.127C112.077 130.425 111.632 129.693 111.234 128.936C109.686 125.98 108.878 122.692 108.881 119.355C108.881 119.189 108.881 119.026 108.881 118.863C108.987 114.448 110.504 110.182 113.21 106.692C115.917 103.201 119.67 100.669 123.92 99.4668C125.543 99.0196 127.213 98.7658 128.895 98.7108H129.513C132.225 98.7092 134.912 99.2419 137.418 100.279C139.924 101.315 142.202 102.836 144.12 104.753C146.039 106.67 147.561 108.946 148.6 111.452C149.639 113.957 150.173 116.643 150.174 119.355Z" fill="#44406D"/>
<path d="M158.685 61.9579C125.651 77.7736 99.251 61.9579 99.251 61.9579C105.713 40.2366 114.895 19.419 126.578 0C126.578 0 145.096 21.2623 158.685 61.9579Z" fill="#AFC0E0"/>
<path d="M161.201 240.54C159.657 246.62 157.936 252.805 156.039 259.095C155.139 262.095 154.191 265.119 153.194 268.167C153.194 268.167 138.675 283.292 103.605 268.167C103.605 268.167 102.466 264.96 100.759 259.095C99.483 254.664 97.8937 248.726 96.2354 241.499C96.2354 241.499 109.291 247.072 127.822 247.072C139.27 247.111 150.613 244.891 161.201 240.54Z" fill="#AFC0E0"/>
<path d="M156.038 259.095C155.139 262.095 154.19 265.119 153.193 268.167C153.193 268.167 138.674 283.292 103.604 268.167C103.604 268.167 102.466 264.96 100.759 259.095C100.755 259.095 136.5 269.378 156.038 259.095Z" fill="#E3E8F4"/>
<path opacity="0.2" d="M123.932 99.4383L123.887 99.4708L108.889 118.835C108.889 118.998 108.889 119.16 108.889 119.327C108.886 122.664 109.694 125.951 111.242 128.907L128.915 98.6823L123.932 99.4383Z" fill="white"/>
<path opacity="0.2" d="M128.72 116.916L116.437 135.309C114.961 134.093 113.659 132.681 112.567 131.11L127.2 115.404L128.72 116.916Z" fill="white"/>
<path opacity="0.2" d="M111.453 268.171C111.453 268.171 107.949 258.29 104.096 241.503C95.6131 204.579 85.4392 134.224 107.116 61.9579C112.943 42.4044 120.968 23.5744 131.037 5.82874C128.285 1.97136 126.566 0.00405884 126.566 0.00405884C114.887 19.4222 105.71 40.2384 99.251 61.9579C77.5741 134.224 87.748 204.579 96.231 241.503C100.084 258.29 103.588 268.171 103.588 268.171C117.445 274.142 128.09 275.394 135.902 274.728C129.228 274.22 121.123 272.338 111.453 268.171Z" fill="white"/>
<path d="M380.853 296.287C380.853 296.287 399.851 272.646 398.591 248.97C397.999 239.044 400.644 229.194 406.127 220.899C408.766 216.975 411.759 213.301 415.069 209.924" stroke="#535461" stroke-width="2" stroke-miterlimit="10"/>
<path d="M414.349 195.015C412.992 198.312 415.024 210.331 415.024 210.331C415.024 210.331 424.93 203.226 426.287 199.929C426.939 198.346 426.935 196.569 426.276 194.989C425.618 193.409 424.358 192.155 422.775 191.503C421.192 190.852 419.415 190.856 417.835 191.514C416.255 192.173 415.001 193.432 414.349 195.015Z" fill="#44406D"/>
<path d="M396.961 209.217C397.615 212.721 405.854 221.704 405.854 221.704C405.854 221.704 410.326 210.359 409.655 206.852C409.341 205.168 408.372 203.678 406.959 202.71C405.547 201.742 403.808 201.374 402.125 201.687C400.442 202.001 398.952 202.971 397.983 204.383C397.015 205.795 396.647 207.534 396.961 209.217Z" fill="#44406D"/>
<path d="M384.547 240.605C386.88 243.299 398.529 246.897 398.529 246.897C398.529 246.897 396.643 234.853 394.31 232.154C393.178 230.903 391.6 230.145 389.916 230.042C388.231 229.94 386.573 230.501 385.298 231.606C384.022 232.711 383.23 234.272 383.091 235.954C382.952 237.636 383.478 239.305 384.555 240.605H384.547Z" fill="#44406D"/>
<path d="M380.503 266.468C382.344 269.521 393.217 275.032 393.217 275.032C393.217 275.032 393.396 262.838 391.555 259.79C391.116 259.064 390.539 258.432 389.856 257.929C389.173 257.427 388.398 257.064 387.575 256.861C386.752 256.657 385.897 256.619 385.058 256.746C384.22 256.873 383.415 257.165 382.69 257.603C381.964 258.042 381.332 258.619 380.829 259.302C380.326 259.984 379.963 260.76 379.76 261.583C379.557 262.406 379.518 263.261 379.646 264.099C379.773 264.938 380.064 265.743 380.503 266.468Z" fill="#44406D"/>
<path d="M418.125 227.504C414.816 228.825 402.817 226.671 402.817 226.671C402.817 226.671 410.02 216.838 413.333 215.513C414.923 214.878 416.7 214.9 418.274 215.575C419.848 216.25 421.089 217.522 421.724 219.113C422.36 220.703 422.338 222.48 421.663 224.054C420.988 225.628 419.715 226.869 418.125 227.504Z" fill="#44406D"/>
<path d="M413.012 257.693C409.459 257.965 398.655 252.319 398.655 252.319C398.655 252.319 408.467 245.088 412.024 244.816C413.711 244.722 415.368 245.292 416.639 246.406C417.91 247.519 418.694 249.086 418.823 250.77C418.952 252.455 418.416 254.123 417.33 255.417C416.244 256.711 414.693 257.528 413.012 257.693Z" fill="#44406D"/>
<path d="M404.017 286.349C400.558 287.218 388.957 283.479 388.957 283.479C388.957 283.479 397.407 274.695 400.866 273.829C401.689 273.622 402.543 273.58 403.382 273.703C404.22 273.827 405.026 274.114 405.754 274.549C406.481 274.984 407.116 275.558 407.622 276.238C408.128 276.919 408.494 277.692 408.701 278.514C408.908 279.336 408.951 280.191 408.827 281.029C408.704 281.868 408.416 282.674 407.981 283.401C407.546 284.129 406.972 284.764 406.292 285.269C405.612 285.775 404.839 286.142 404.017 286.349Z" fill="#44406D"/>
<path opacity="0.25" d="M414.349 195.015C412.992 198.312 415.024 210.331 415.024 210.331C415.024 210.331 424.93 203.226 426.287 199.929C426.939 198.346 426.935 196.569 426.276 194.989C425.618 193.409 424.358 192.155 422.775 191.503C421.192 190.852 419.415 190.856 417.835 191.514C416.255 192.173 415.001 193.432 414.349 195.015Z" fill="black"/>
<path opacity="0.25" d="M396.961 209.217C397.615 212.721 405.854 221.704 405.854 221.704C405.854 221.704 410.326 210.359 409.655 206.852C409.341 205.168 408.372 203.678 406.959 202.71C405.547 201.742 403.808 201.374 402.125 201.687C400.442 202.001 398.952 202.971 397.983 204.383C397.015 205.795 396.647 207.534 396.961 209.217Z" fill="black"/>
<path opacity="0.25" d="M384.547 240.605C386.88 243.299 398.529 246.897 398.529 246.897C398.529 246.897 396.643 234.853 394.31 232.154C393.178 230.903 391.6 230.145 389.916 230.042C388.231 229.94 386.573 230.501 385.298 231.606C384.022 232.711 383.23 234.272 383.091 235.954C382.952 237.636 383.478 239.305 384.555 240.605H384.547Z" fill="black"/>
<path opacity="0.25" d="M380.503 266.468C382.344 269.521 393.217 275.032 393.217 275.032C393.217 275.032 393.396 262.838 391.555 259.79C391.116 259.064 390.539 258.432 389.856 257.929C389.173 257.427 388.398 257.064 387.575 256.861C386.752 256.657 385.897 256.619 385.058 256.746C384.22 256.873 383.415 257.165 382.69 257.603C381.964 258.042 381.332 258.619 380.829 259.302C380.326 259.984 379.963 260.76 379.76 261.583C379.557 262.406 379.518 263.261 379.646 264.099C379.773 264.938 380.064 265.743 380.503 266.468Z" fill="black"/>
<path opacity="0.25" d="M418.125 227.504C414.816 228.825 402.817 226.671 402.817 226.671C402.817 226.671 410.02 216.838 413.333 215.513C414.923 214.878 416.7 214.9 418.274 215.575C419.848 216.25 421.089 217.522 421.724 219.113C422.36 220.703 422.338 222.48 421.663 224.054C420.988 225.628 419.715 226.869 418.125 227.504Z" fill="black"/>
<path opacity="0.25" d="M413.012 257.693C409.459 257.965 398.655 252.319 398.655 252.319C398.655 252.319 408.467 245.088 412.024 244.816C413.711 244.722 415.368 245.292 416.639 246.406C417.91 247.519 418.694 249.086 418.823 250.77C418.952 252.455 418.416 254.123 417.33 255.417C416.244 256.711 414.693 257.528 413.012 257.693Z" fill="black"/>
<path opacity="0.25" d="M404.017 286.349C400.558 287.218 388.957 283.479 388.957 283.479C388.957 283.479 397.407 274.695 400.866 273.829C401.689 273.622 402.543 273.58 403.382 273.703C404.22 273.827 405.026 274.114 405.754 274.549C406.481 274.984 407.116 275.558 407.622 276.238C408.128 276.919 408.494 277.692 408.701 278.514C408.908 279.336 408.951 280.191 408.827 281.029C408.704 281.868 408.416 282.674 407.981 283.401C407.546 284.129 406.972 284.764 406.292 285.269C405.612 285.775 404.839 286.142 404.017 286.349Z" fill="black"/>
<path d="M381.023 295.299C381.023 295.299 407.972 281.381 416.415 259.229C419.895 249.913 426.305 241.978 434.681 236.617C438.677 234.101 442.895 231.957 447.282 230.211" stroke="#535461" stroke-width="2" stroke-miterlimit="10"/>
<path d="M452.684 216.282C450.107 218.749 447.095 230.561 447.095 230.561C447.095 230.561 459.029 228.077 461.606 225.614C462.845 224.431 463.564 222.804 463.604 221.091C463.644 219.377 463.002 217.718 461.819 216.479C460.636 215.239 459.009 214.52 457.295 214.48C455.582 214.44 453.923 215.082 452.684 216.265V216.282Z" fill="#44406D"/>
<path d="M431.035 222.22C430.222 225.691 434.104 237.259 434.104 237.259C434.104 237.259 442.757 228.695 443.595 225.204C443.984 223.54 443.698 221.791 442.799 220.338C441.901 218.886 440.463 217.848 438.801 217.454C437.139 217.059 435.389 217.339 433.933 218.232C432.478 219.126 431.435 220.56 431.035 222.22Z" fill="#44406D"/>
<path d="M406.964 245.885C408.004 249.295 417.199 257.302 417.199 257.302C417.199 257.302 420.357 245.515 419.317 242.121C419.069 241.31 418.665 240.555 418.126 239.9C417.588 239.246 416.925 238.703 416.177 238.305C415.429 237.906 414.609 237.658 413.765 237.576C412.921 237.494 412.069 237.579 411.258 237.826C410.447 238.074 409.693 238.478 409.038 239.017C408.383 239.555 407.841 240.218 407.442 240.966C407.043 241.714 406.796 242.534 406.714 243.378C406.632 244.222 406.717 245.074 406.964 245.885Z" fill="#44406D"/>
<path d="M392.786 267.891C393.233 271.431 400.94 280.873 400.94 280.873C400.94 280.873 406.045 269.805 405.594 266.265C405.378 264.566 404.496 263.023 403.143 261.975C401.79 260.926 400.075 260.458 398.377 260.674C396.678 260.89 395.135 261.771 394.087 263.124C393.038 264.478 392.57 266.192 392.786 267.891Z" fill="#44406D"/>
<path d="M442.973 247.515C439.408 247.384 429.315 240.552 429.315 240.552C429.315 240.552 439.884 234.483 443.448 234.613C444.295 234.644 445.128 234.842 445.899 235.195C446.669 235.548 447.363 236.05 447.94 236.671C448.517 237.292 448.966 238.02 449.261 238.815C449.556 239.61 449.692 240.455 449.661 241.302C449.63 242.149 449.432 242.981 449.079 243.752C448.726 244.523 448.225 245.216 447.604 245.793C446.983 246.37 446.254 246.819 445.459 247.115C444.665 247.41 443.82 247.546 442.973 247.515Z" fill="#44406D"/>
<path d="M426.064 273.041C422.702 271.85 415.113 262.31 415.113 262.31C415.113 262.31 427.019 259.68 430.376 260.871C431.175 261.154 431.911 261.592 432.541 262.159C433.17 262.727 433.682 263.413 434.047 264.178C434.412 264.943 434.622 265.773 434.667 266.62C434.711 267.466 434.588 268.313 434.305 269.112C434.021 269.911 433.584 270.647 433.016 271.277C432.449 271.906 431.763 272.418 430.998 272.783C430.232 273.148 429.403 273.359 428.556 273.403C427.71 273.447 426.863 273.324 426.064 273.041Z" fill="#44406D"/>
<path d="M406.225 295.596C402.713 294.99 393.624 286.869 393.624 286.869C393.624 286.869 404.912 282.268 408.424 282.873C410.111 283.164 411.613 284.114 412.6 285.512C413.587 286.911 413.978 288.645 413.687 290.332C413.396 292.019 412.447 293.521 411.048 294.509C409.649 295.496 407.916 295.887 406.229 295.596H406.225Z" fill="#44406D"/>
<path d="M419.341 282.235L398.452 251.941C398.452 251.941 398.046 244.442 396.696 242.69C395.347 240.938 396.404 237.04 396.404 237.04C396.404 237.04 397.867 234.898 396.599 234.703C395.331 234.508 396.404 229.732 396.404 229.732L396.306 222.135C396.306 222.135 397.477 214.818 396.501 213.079C396.216 212.605 396.073 212.058 396.09 211.505C396.108 210.952 396.284 210.416 396.599 209.961C396.599 209.961 397.769 205.77 396.599 204.701C395.428 203.632 395.721 197.1 396.014 191.938C396.306 186.776 393.961 183.854 393.961 183.073C393.961 182.293 386.238 174.696 386.238 174.017C386.238 173.338 381.36 170.509 378.43 169.729C375.499 168.948 374.036 168.367 374.133 167.977C374.231 167.587 369.544 166.03 369.544 166.03C369.544 166.03 365.443 165.737 363.878 163.689C362.313 161.64 357.541 161.055 357.403 161.034C357.375 160.9 357.342 160.762 357.314 160.628C357.285 160.494 357.253 160.335 357.224 160.189C357.594 159.567 357.936 158.933 358.245 158.279C358.338 158.079 358.427 157.872 358.513 157.685C360.224 157.608 361.98 157.242 363.321 156.193C364.01 155.617 364.574 154.905 364.976 154.101C365.378 153.298 365.61 152.42 365.658 151.523C365.741 149.723 365.347 147.932 364.516 146.333C363.663 144.577 362.407 142.76 362.838 140.857C363.029 140.044 363.52 139.313 363.772 138.508C364.248 136.984 363.809 135.309 363.069 133.895C362.33 132.48 361.301 131.236 360.48 129.867C359.431 128.121 358.731 126.188 358.419 124.176C358.253 123.119 358.188 122.005 357.655 121.075C357.214 120.384 356.63 119.795 355.944 119.347C352.89 117.163 349.202 116.044 345.449 116.164C342.791 116.258 340.14 116.977 337.502 116.648C335.913 116.453 334.397 115.888 332.861 115.429C329.584 114.461 325.808 114.063 322.955 115.937C320.102 117.811 318.968 121.497 317.037 124.379C315.33 126.932 312.826 129.07 311.525 131.769C311.525 131.72 311.549 131.667 311.566 131.614C311.246 132.239 311.002 132.899 310.838 133.582C310.342 135.703 310.757 137.923 311.273 140.04C311.537 141.134 311.903 142.321 312.85 142.926C313.797 143.532 315.139 143.398 316.26 143.597C316.22 143.78 316.171 143.967 316.13 144.154C314.969 149.642 315.917 155.367 318.786 160.188C321.655 165.008 326.235 168.572 331.613 170.168C331.613 170.367 331.613 170.574 331.613 170.761C331.611 171.321 331.577 171.88 331.511 172.436C331.511 172.436 321.695 170.404 319.057 171.786C316.419 173.168 311.245 174.224 310.464 174.997C309.684 175.769 307.733 175.192 305.993 179.773C304.253 184.354 304.042 189.024 301.794 191.154C299.546 193.284 298.38 194.759 298.282 196.32C298.185 197.881 298.575 198.267 297.693 198.759C296.811 199.251 295.547 201.291 295.937 202.071C295.937 202.071 296.425 204.018 294.864 204.99C293.303 205.961 293.494 207.912 293.494 207.912C293.494 207.912 292.909 210.059 291.543 210.542C290.177 211.026 289.295 214.245 289.295 214.245L284.853 219.346L276.077 209.632C275.42 208.904 274.5 208.466 273.521 208.416C272.542 208.366 271.582 208.707 270.854 209.364L266.545 213.249C264.882 213.653 263.379 214.548 262.233 215.818C261.294 216.782 260.538 217.909 260.001 219.143L257.64 221.265C256.897 222.185 256.444 223.305 256.336 224.482C256.228 225.659 256.471 226.842 257.034 227.882L262.655 234.097L262.692 234.15C260.566 234.418 258.688 235.101 257.254 236.365C248.86 243.767 248.758 250.592 250.031 253.701C251.303 256.811 261.94 268.801 261.94 268.801C261.94 268.801 268.122 276.837 277.048 281.113L276.979 281.182C276.805 281.369 276.63 281.589 276.459 281.792L276.313 281.979L276.179 282.166L276.02 282.402C275.975 282.463 275.935 282.528 275.894 282.593C275.853 282.658 275.78 282.776 275.727 282.873L275.618 283.06C275.553 283.182 275.484 283.308 275.419 283.438L275.354 283.564C275.272 283.735 275.191 283.91 275.114 284.093C275.085 284.158 275.061 284.227 275.032 284.292C274.984 284.418 274.931 284.548 274.882 284.698C274.833 284.849 274.821 284.865 274.793 284.95C274.764 285.036 274.707 285.202 274.667 285.332C274.626 285.462 274.61 285.515 274.585 285.605C274.561 285.694 274.504 285.889 274.467 286.036C274.431 286.182 274.423 286.206 274.398 286.3C274.345 286.523 274.293 286.755 274.248 286.999C274.248 287.088 274.215 287.182 274.199 287.275C274.167 287.438 274.138 287.605 274.114 287.775C274.093 287.893 274.081 288.011 274.065 288.129C274.049 288.247 274.024 288.45 274.004 288.613L273.967 288.987C273.967 289.165 273.935 289.352 273.923 289.539C273.923 289.653 273.923 289.767 273.902 289.881C273.902 290.19 273.87 290.499 273.866 290.824C273.671 302.205 274.337 303.875 274.337 303.875C274.337 303.875 275.715 307.505 279.52 307.765C280.078 307.806 280.64 307.776 281.19 307.676C286.267 306.798 298.177 304.753 302.376 305.534C304.9 306.001 309.574 305.31 312.903 304.68L313.777 304.514L314.387 306.448L316.317 305.92L317.943 306.867L318.98 307.46C320.906 313.996 328.735 311.769 328.735 311.769L330.572 312.834L349.416 313.322C349.416 313.322 353.481 315.761 356.086 316.525C356.396 316.618 356.713 316.688 357.033 316.732C358.78 316.872 360.534 316.905 362.285 316.83C363.728 316.793 364.846 316.732 364.846 316.732C364.846 316.732 364.655 311.615 364.378 305.887C371.581 305.587 377.966 305.135 381.832 304.457C391.896 302.689 396.095 293.539 397.639 288.649C398.104 290.648 398.434 292.675 398.627 294.718C399.037 296.502 399.56 298.259 400.192 299.977C400.742 301.36 401.463 302.668 402.338 303.871C409.76 301.339 405.269 297.543 403.704 295.884C402.139 294.226 404.781 292.864 404.781 292.864C404.781 292.864 406.813 291.503 406.635 290.234C406.456 288.966 406.342 287.605 412.979 287.702C419.617 287.8 419.341 282.235 419.341 282.235ZM316.236 220.045C316.321 220.602 317.248 226.606 318.086 228.175C318.26 228.508 318.329 229.691 318.305 231.382C314.37 231.069 310.273 230.902 310.273 230.902C310.391 231.045 310.465 231.218 310.485 231.402L309.867 231.264L308.968 231.045L316.216 220.021L316.236 220.045ZM301.88 242.889L308.688 243.97L309.261 244.06C309.066 245.121 308.948 246.196 308.907 247.275C308.907 247.376 309.062 247.498 309.281 247.641C309.186 248.177 309.141 248.721 309.147 249.266C309.257 249.807 312.44 250.97 316.09 251.937C316.041 252.132 315.992 252.319 315.943 252.494C312.72 250.799 307.639 250.006 307.054 248.746C306.469 247.486 289.169 241.43 289.169 241.43C289.169 241.43 288.539 241.096 287.45 240.568L292.002 241.43L293.254 241.304C296.093 242.014 298.974 242.541 301.88 242.881V242.889Z" fill="url(#paint0_linear)"/>
<path d="M397.115 286.475C397.115 286.475 394.408 302.827 380.665 305.245C366.922 307.664 321.053 307.18 321.053 307.18C321.053 307.18 294.827 303.408 285.344 281.247C275.861 259.087 269.764 250.279 277.894 249.892C286.023 249.506 329.861 264.7 332.361 264.891C334.86 265.082 399.533 231.215 397.115 286.475Z" fill="#434175"/>
<path opacity="0.05" d="M397.115 286.475C397.115 286.475 394.408 302.827 380.665 305.245C366.922 307.664 321.053 307.18 321.053 307.18C321.053 307.18 294.827 303.408 285.344 281.247C275.861 259.087 269.764 250.279 277.894 249.892C286.023 249.506 329.861 264.7 332.361 264.891C334.86 265.082 399.533 231.215 397.115 286.475Z" fill="black"/>
<path d="M274.102 304.664C274.102 304.664 275.471 308.273 279.239 308.529C279.792 308.568 280.348 308.538 280.894 308.44C285.926 307.57 297.734 305.538 301.892 306.31C304.396 306.778 309.025 306.087 312.322 305.465C314.517 305.058 316.118 304.652 316.118 304.652C316.118 304.652 312.249 291.783 311.761 291.397C311.273 291.011 294.344 280.849 294.344 280.849L280.93 279.886H280.89C280.89 279.886 278.406 280.052 276.345 282.556C274.927 284.267 273.711 287.08 273.63 291.689C273.443 303.018 274.102 304.664 274.102 304.664Z" fill="#565387"/>
<path opacity="0.05" d="M274.102 304.664C274.102 304.664 275.472 308.273 279.24 308.529C277.918 306.83 276.696 305.055 275.582 303.213L275.651 293.828C275.053 286.8 278.341 282.3 280.935 279.898H280.894C280.894 279.898 273.83 280.377 273.635 291.685C273.439 302.993 274.102 304.664 274.102 304.664Z" fill="black"/>
<path opacity="0.1" d="M332.279 284.15L344.762 274.394L364.406 255.038C364.406 255.038 362.285 254.937 359.086 254.798C358.273 255.307 356.057 256.904 355.976 258.863C355.879 261.229 350.664 259.026 347.957 260.379C345.25 261.733 331.991 278.703 329.666 278.593C327.341 278.483 325.507 277.414 324.536 279.061C324.536 279.097 324.491 279.13 324.467 279.166L332.279 284.15Z" fill="black"/>
<path opacity="0.1" d="M276.35 282.564C276.793 282.78 277.24 282.971 277.699 283.182C287.186 287.247 298.892 295.783 299.766 297.311C300.295 298.254 307.083 302.376 312.322 305.465C314.517 305.058 316.118 304.652 316.118 304.652C316.118 304.652 312.249 291.783 311.761 291.397C311.273 291.011 294.344 280.849 294.344 280.849L280.931 279.886H280.89C280.89 279.886 278.41 280.06 276.35 282.564Z" fill="black"/>
<path d="M250.026 254.827C251.282 257.924 261.814 269.83 261.814 269.83C261.814 269.83 268.488 278.536 277.975 282.601C287.462 286.666 299.168 295.201 300.038 296.73C300.599 297.726 308.167 302.278 313.484 305.408L314.675 306.103L317.317 307.635L318.715 308.448C318.715 308.448 321.967 305.847 325.182 303.229C328.397 300.612 331.535 298.047 331.588 297.9C331.681 297.612 332.937 294.319 332.649 294.128C332.498 294.027 331.836 292.685 330.616 291.133C329.315 289.409 327.626 288.017 325.686 287.068C321.215 285.036 319.3 280.41 319.3 280.41C319.3 280.41 318.894 280.101 318.231 279.695C317.085 278.971 315.244 277.931 313.882 277.756C311.748 277.488 307.785 273.134 307.785 273.134C307.785 273.134 305.074 271.391 304.009 269.167C302.993 267.045 287.986 256.737 286.596 255.786L322.979 279.15L331.686 284.747L344.168 274.992L363.817 255.636C363.817 255.636 361.175 255.506 357.313 255.343C347.765 254.937 330.808 254.282 328.665 254.766C326.922 255.172 325.123 255.289 323.341 255.111C323.341 255.111 318.512 255.331 315.317 253.644C312.122 251.957 307.086 251.169 306.505 249.921C305.924 248.673 288.795 242.665 288.795 242.665C288.795 242.665 265.476 230.28 257.152 237.637C248.827 244.994 248.766 251.734 250.026 254.827Z" fill="#434175"/>
<path d="M325.215 183.801L328.215 193.767L332.084 216.217L346.311 217.184L350.428 210.355L354.554 203.539C354.554 203.539 357.114 194.466 358.956 185.691C360.582 177.927 361.647 170.391 359.874 169.574C358.305 168.847 357.273 166.233 356.623 163.42C356.537 163.075 356.46 162.721 356.387 162.368C355.913 159.986 355.598 157.576 355.444 155.153C355.444 155.153 325.638 153.608 329.8 165.896C330.543 167.995 330.922 170.205 330.922 172.432C330.918 172.987 330.884 173.542 330.82 174.094C330.608 176.012 330.001 177.865 329.036 179.536C328.071 181.206 326.77 182.659 325.215 183.801Z" fill="#EE8E9E"/>
<path d="M319.021 182.155L320.085 199.088L322.504 213.505L325.215 220.184L327.634 256.717C327.634 256.717 350.969 259.416 356.643 256.668C357.052 256.494 357.407 256.213 357.672 255.855C364.525 245.519 362.277 215.538 362.277 215.538L364.89 196.178L363.147 186.13L358.94 185.683L355.688 185.337C355.688 185.337 354.956 186.24 353.9 187.634C351.03 191.422 345.77 198.873 346.107 201.982C346.587 206.242 345.526 210.595 343.88 211.274C342.234 211.953 340.88 213.111 340.592 211.953C340.303 210.794 340.01 210.502 340.299 208.855C340.588 207.209 339.039 202.177 339.039 202.177C339.039 202.177 336.43 196.275 336.6 193.759C336.771 191.243 336.312 188.337 335.535 187.662C334.759 186.987 333.698 186.305 334.568 183.191C335.438 180.078 330.751 174.066 330.751 174.066L319.021 182.155Z" fill="#E3E8F4"/>
<path opacity="0.1" d="M349.843 224.447L350.81 253.384L356.399 256.481C356.808 256.307 357.163 256.026 357.428 255.668C364.285 245.316 362.037 215.339 362.037 215.339L364.651 195.983L362.907 185.939L358.696 185.492C360.322 177.728 361.387 170.192 359.619 169.375C358.046 168.648 357.013 166.034 356.342 163.221L353.335 183.707C353.335 183.707 353.587 185.553 353.676 187.455C353.745 188.869 353.721 190.3 353.432 191.06C352.753 192.804 353.237 195.901 353.237 195.901C351.493 198.974 350.623 204.669 350.197 210.168C349.624 217.481 349.843 224.447 349.843 224.447Z" fill="black"/>
<path d="M356.436 162.774C356.436 162.774 361.314 163.38 362.858 165.412C364.403 167.444 368.472 167.725 368.472 167.725C368.472 167.725 373.117 169.274 373.02 169.66C372.922 170.046 374.373 170.631 377.28 171.403C380.186 172.176 385.003 174.984 385.003 175.663C385.003 176.342 392.648 183.886 392.648 184.662C392.648 185.439 394.973 188.321 394.681 193.467C394.388 198.612 394.099 205.079 395.262 206.144C396.424 207.209 395.262 211.371 395.262 211.371C394.954 211.827 394.784 212.361 394.773 212.911C394.762 213.461 394.911 214.002 395.201 214.469C396.168 216.213 395.01 223.472 395.01 223.472L395.103 231.02C395.103 231.02 394.038 235.76 395.298 235.955C396.558 236.15 395.103 238.276 395.103 238.276C395.103 238.276 394.038 242.149 395.396 243.889C396.754 245.629 397.136 253.083 397.136 253.083L417.865 283.162C417.865 283.162 418.158 288.678 411.577 288.58C404.997 288.483 405.074 289.84 405.285 291.096C405.497 292.352 403.448 293.71 403.448 293.71C403.448 293.71 400.834 295.063 402.383 296.709C403.932 298.356 408.383 302.128 401.03 304.644C400.159 303.449 399.444 302.149 398.9 300.774C398.276 299.067 397.758 297.322 397.351 295.551C397.351 295.551 396.672 288.194 395.319 287.227C393.965 286.259 394.156 281.613 394.156 281.613C394.156 281.613 396.091 277.841 393.384 276.293C390.677 274.744 351.343 252.99 351.343 252.99L350.376 224.053C350.376 224.053 349.697 202.669 353.761 195.507C353.761 195.507 353.278 192.41 353.957 190.67C354.635 188.93 353.859 183.313 353.859 183.313L356.436 162.774Z" fill="#565387"/>
<path opacity="0.1" d="M331.072 174.383C331.072 174.383 321.346 172.379 318.732 173.733C316.118 175.086 311.009 176.171 310.196 176.927C309.383 177.683 307.485 177.122 305.745 181.671C304.006 186.219 303.807 190.861 301.583 192.991C299.36 195.121 298.197 196.572 298.1 198.121C298.002 199.669 298.388 200.055 297.519 200.559C296.649 201.063 295.389 203.075 295.775 203.852C296.161 204.628 315.94 221.635 315.94 221.635C315.94 221.635 316.911 228.138 317.781 229.764C318.651 231.39 316.814 254.055 314.879 255.603C312.944 257.152 327.943 257.01 327.943 257.01C327.943 257.01 328.617 242.153 329.199 241.377C329.78 240.601 328.792 224.712 328.792 224.712C328.792 224.712 328.695 211.164 329.955 207.583C331.215 204.002 331.072 192.113 331.072 192.113C331.072 192.113 332.186 184.971 333.54 183.305C334.893 181.638 331.072 174.383 331.072 174.383Z" fill="black"/>
<path d="M330.783 174.094C330.783 174.094 321.053 172.09 318.439 173.444C315.825 174.797 310.716 175.862 309.923 176.639C309.131 177.415 307.216 176.83 305.452 181.378C303.688 185.927 303.518 190.573 301.29 192.702C299.063 194.832 297.904 196.283 297.807 197.832C297.709 199.381 298.099 199.767 297.229 200.251C296.36 200.734 295.1 202.767 295.486 203.539C295.872 204.311 315.614 221.346 315.614 221.346C315.614 221.346 316.581 227.85 317.451 229.476C318.321 231.101 316.484 253.762 314.549 255.311C312.614 256.859 327.613 256.717 327.613 256.717C327.613 256.717 328.292 241.861 328.873 241.088C329.454 240.316 328.467 224.423 328.467 224.423C328.467 224.423 328.373 210.876 329.629 207.295C330.885 203.714 330.747 191.808 330.747 191.808C330.747 191.808 331.861 184.667 333.21 183.004C334.559 181.342 330.783 174.094 330.783 174.094Z" fill="#565387"/>
<path opacity="0.1" d="M329.759 165.896C330.502 167.995 330.881 170.205 330.881 172.432C335.64 173.842 340.734 173.616 345.35 171.792C349.965 169.968 353.837 166.65 356.346 162.368C355.872 159.986 355.557 157.576 355.403 155.153C355.403 155.153 325.601 153.608 329.759 165.896Z" fill="black"/>
<path d="M315.054 150.605C315.059 156.281 317.242 161.74 321.153 165.854C325.065 169.968 330.406 172.424 336.075 172.716C341.744 173.008 347.309 171.113 351.622 167.423C355.935 163.732 358.668 158.527 359.256 152.88C359.844 147.234 358.243 141.578 354.783 137.077C351.323 132.577 346.267 129.576 340.66 128.694C335.052 127.811 329.319 129.114 324.644 132.334C319.969 135.554 316.708 140.445 315.533 145.999C315.213 147.513 315.052 149.057 315.054 150.605Z" fill="#EE8E9E"/>
<path d="M300.826 201.893L295.506 203.539C295.506 203.539 295.989 205.474 294.441 206.441C292.892 207.408 293.087 209.347 293.087 209.347C293.087 209.347 292.506 211.473 291.153 211.957C289.799 212.44 288.925 215.615 288.925 215.615L284.474 220.745C284.474 220.745 282.828 222.098 283.121 222.777C283.413 223.456 281.377 223.647 281.377 223.647L282.442 240.889L291.636 242.633L297.327 242.052L301.973 240.308L306.037 237.869L307.891 233.166L316.02 220.781L300.826 201.893Z" fill="#565387"/>
<path d="M282.731 225.037C282.731 225.037 270.943 208.002 262.119 217.196C253.294 226.39 265.7 241.292 268.602 240.808C271.504 240.324 285.344 239.552 285.344 239.552L282.731 225.037Z" fill="#EE8E9E"/>
<path d="M269.241 213.168L258.321 223.017C256.217 224.915 256.05 228.158 257.947 230.262L270.079 243.712C271.976 245.815 275.22 245.982 277.323 244.085L288.243 234.235C290.347 232.338 290.514 229.094 288.617 226.99L276.486 213.541C274.588 211.437 271.345 211.27 269.241 213.168Z" fill="#30374E"/>
<path opacity="0.1" d="M269.241 213.168L258.321 223.017C256.217 224.915 256.05 228.158 257.947 230.262L270.079 243.712C271.976 245.815 275.22 245.982 277.323 244.085L288.243 234.235C290.347 232.338 290.514 229.094 288.617 226.99L276.486 213.541C274.588 211.437 271.345 211.27 269.241 213.168Z" fill="black"/>
<path d="M269.574 211.765L258.654 221.615C256.55 223.512 256.383 226.756 258.28 228.859L270.412 242.309C272.309 244.412 275.553 244.58 277.656 242.682L288.577 232.832C290.68 230.935 290.847 227.691 288.95 225.588L276.819 212.138C274.921 210.034 271.678 209.867 269.574 211.765Z" fill="#30374E"/>
<path d="M273.305 233.439C276.351 233.439 278.821 230.969 278.821 227.923C278.821 224.877 276.351 222.407 273.305 222.407C270.259 222.407 267.789 224.877 267.789 227.923C267.789 230.969 270.259 233.439 273.305 233.439Z" fill="#44406D"/>
<path opacity="0.1" d="M273.305 233.439C276.351 233.439 278.821 230.969 278.821 227.923C278.821 224.877 276.351 222.407 273.305 222.407C270.259 222.407 267.789 224.877 267.789 227.923C267.789 230.969 270.259 233.439 273.305 233.439Z" fill="black"/>
<path d="M273.613 232.74C276.66 232.74 279.129 230.27 279.129 227.224C279.129 224.177 276.66 221.708 273.613 221.708C270.567 221.708 268.098 224.177 268.098 227.224C268.098 230.27 270.567 232.74 273.613 232.74Z" fill="white"/>
<path d="M275.089 228.602C274.992 241.377 301.412 244.084 301.412 244.084L308.159 245.157L311.183 245.637L312.444 233.166C312.444 233.166 311.057 232.959 309.326 232.557C306.769 231.959 303.457 230.931 302.761 229.488C301.603 227.069 275.183 215.83 275.089 228.602Z" fill="#EE8E9E"/>
<path opacity="0.1" d="M315.533 145.999C316.143 146.044 316.718 146.3 317.159 146.723C317.907 147.515 317.948 148.922 318.919 149.409C319.282 149.567 319.684 149.614 320.073 149.544C322.646 149.178 324.138 146.292 326.605 145.479C328.012 145.024 329.56 145.32 330.934 145.849C331.487 146.022 331.982 146.341 332.369 146.772C333.182 147.841 332.617 149.414 332.999 150.71C333.532 152.507 335.678 153.222 337.535 153.458C339.393 153.694 341.486 153.824 342.726 155.226C343.604 156.222 343.827 157.665 343.649 158.97C343.539 159.425 343.539 159.9 343.649 160.356C344.161 161.807 346.673 161.575 347.327 160.445C347.807 159.612 347.66 158.921 348.79 158.689C349.555 158.531 350.453 158.852 351.16 159.096C353.13 159.775 355.206 160.095 357.29 160.039C358.607 157.211 359.312 154.138 359.36 151.019C359.408 147.901 358.798 144.807 357.568 141.94C356.338 139.074 354.518 136.499 352.225 134.385C349.932 132.27 347.218 130.663 344.262 129.669C341.306 128.675 338.173 128.317 335.068 128.616C331.963 128.916 328.957 129.868 326.245 131.409C323.534 132.95 321.178 135.047 319.332 137.561C317.486 140.075 316.192 142.95 315.533 145.999Z" fill="black"/>
<path d="M343.636 159.77C343.527 159.315 343.527 158.84 343.636 158.384C343.811 157.071 343.592 155.632 342.714 154.641C341.494 153.238 339.381 153.104 337.523 152.873C335.666 152.641 333.519 151.926 332.987 150.129C332.605 148.832 333.182 147.255 332.357 146.186C331.972 145.755 331.478 145.438 330.926 145.268C329.548 144.735 328 144.455 326.593 144.894C324.126 145.707 322.634 148.601 320.061 148.958C319.672 149.029 319.27 148.982 318.907 148.824C317.935 148.336 317.895 146.93 317.147 146.141C315.972 144.898 313.741 145.698 312.302 144.776C311.363 144.17 311.001 142.995 310.741 141.91C310.229 139.805 309.818 137.598 310.31 135.492C311.151 131.891 314.375 129.423 316.407 126.351C318.322 123.485 319.395 119.847 322.272 117.961C325.15 116.075 328.845 116.494 332.089 117.457C333.609 117.908 335.113 118.469 336.686 118.676C339.303 118.998 341.929 118.27 344.563 118.197C348.283 118.077 351.939 119.187 354.965 121.355C355.646 121.801 356.225 122.387 356.664 123.074C357.188 124.001 357.257 125.107 357.416 126.155C357.723 128.156 358.413 130.078 359.448 131.818C360.261 133.179 361.281 134.415 362.017 135.821C362.753 137.228 363.183 138.89 362.712 140.402C362.464 141.215 361.972 141.918 361.789 142.735C361.358 144.625 362.602 146.43 363.452 148.174C364.274 149.764 364.664 151.543 364.582 153.332C364.534 154.222 364.304 155.094 363.905 155.892C363.507 156.689 362.948 157.397 362.265 157.97C360.895 159.043 359.094 159.4 357.359 159.457C355.235 159.529 353.116 159.211 351.107 158.518C350.396 158.275 349.481 157.953 348.738 158.112C347.608 158.344 347.754 159.035 347.274 159.868C346.656 161.006 344.149 161.221 343.636 159.77Z" fill="#434175"/>
<path opacity="0.1" d="M331.699 284.731L344.181 274.976L363.83 255.62C363.83 255.62 361.188 255.489 357.326 255.327C356.623 256.042 355.997 256.953 355.957 257.969C355.859 260.335 350.644 258.136 347.937 259.489C345.23 260.843 331.971 277.809 329.646 277.699C327.321 277.589 325.488 276.52 324.516 278.166C324.496 278.204 324.473 278.241 324.447 278.276C324.061 278.717 323.544 279.023 322.972 279.15L331.699 284.731Z" fill="black"/>
<path d="M306.538 284.052L312.81 304.075L313.794 307.221L316.781 306.408L323.366 304.599L352.697 296.543C352.697 296.543 358.208 296.47 363.265 293.726C368.854 290.686 375.158 289.157 381.491 289.751C385.368 290.112 389.681 288.442 393.278 281.833C393.278 281.833 401.408 257.851 380.889 250.941C360.371 244.031 359.395 254.599 359.395 254.599C359.395 254.599 359.289 254.656 359.119 254.77C358.306 255.278 356.091 256.876 356.009 258.835C355.912 261.2 350.697 258.997 347.99 260.351C345.283 261.704 332.024 278.674 329.699 278.565C327.374 278.455 325.54 277.386 324.569 279.032C324.569 279.069 324.524 279.101 324.5 279.138C323.785 280.125 321.63 280.357 320.204 280.394C319.427 280.418 318.862 280.394 318.862 280.394L318.679 280.451L317.159 280.873L306.538 284.052Z" fill="#434175"/>
<path opacity="0.1" d="M308.159 245.157L311.183 245.637L312.443 233.166C312.443 233.166 311.057 232.959 309.326 232.557C309.785 234.284 308.744 241.019 308.159 245.157Z" fill="black"/>
<path opacity="0.1" d="M387.29 186.829C387.29 186.829 396.29 184.215 394.062 209.766C391.835 235.316 375.194 251.457 375.194 251.457C375.194 251.457 356.033 259.875 347.42 258.522C338.807 257.168 332.519 256.896 332.519 256.896C329.808 255.526 326.842 254.735 323.808 254.575C318.967 254.38 308.81 251.38 308.615 250.413C308.419 249.445 311.131 235.219 309.968 234.154C309.968 234.154 323.516 234.711 324.873 235.69C326.231 236.67 328.162 235.967 329.613 235.69C331.064 235.414 335.519 231.54 344.323 234.93C344.323 234.93 347.323 235.219 348.485 234.447C349.648 233.674 351.509 234.252 351.509 234.252C351.509 234.252 353.334 233.573 353.615 233.166C353.895 232.76 356.224 233.166 356.224 233.166C356.362 233.234 356.514 233.27 356.668 233.271C356.822 233.272 356.974 233.239 357.114 233.174C357.253 233.109 357.376 233.014 357.474 232.895C357.572 232.776 357.642 232.637 357.679 232.487C357.983 231.695 358.444 230.972 359.033 230.362C359.033 230.362 361.646 215.652 366.581 210.136C366.581 210.136 368.032 208.876 367.646 207.327C367.26 205.778 375.69 183.728 387.29 186.829Z" fill="black"/>
<path d="M387.072 184.862C387.072 184.862 396.071 182.248 393.847 207.799C391.624 233.349 374.955 249.506 374.955 249.506C374.955 249.506 355.794 257.924 347.181 256.571C338.568 255.217 332.28 254.924 332.28 254.924C329.569 253.553 326.602 252.763 323.569 252.603C318.732 252.408 308.57 249.409 308.375 248.441C308.18 247.474 310.891 233.248 309.733 232.183C309.733 232.183 323.281 232.739 324.634 233.719C325.988 234.699 327.926 233.995 329.378 233.719C330.829 233.443 335.279 229.573 344.088 232.959C344.088 232.959 347.087 233.247 348.246 232.475C349.404 231.703 351.274 232.28 351.274 232.28C351.274 232.28 353.087 231.601 353.375 231.215C353.664 230.829 355.989 231.215 355.989 231.215C356.127 231.283 356.278 231.319 356.431 231.32C356.585 231.322 356.737 231.289 356.876 231.225C357.015 231.16 357.138 231.065 357.235 230.946C357.333 230.828 357.403 230.689 357.44 230.54C357.743 229.747 358.204 229.022 358.794 228.411C358.794 228.411 361.407 213.7 366.342 208.185C366.342 208.185 367.793 206.925 367.407 205.38C367.021 203.835 375.438 181.764 387.072 184.862Z" fill="#565387"/>
<path opacity="0.1" d="M317.158 280.873L329.938 296.319C329.986 296.274 330.019 296.242 330.019 296.23C330.116 295.937 331.372 292.649 331.084 292.454C330.795 292.259 328.568 287.422 324.117 285.389C321.398 284.17 319.617 281.938 318.646 280.41L317.158 280.873Z" fill="black"/>
<path opacity="0.1" d="M317.333 307.635L318.731 308.448C318.731 308.448 321.983 305.847 325.198 303.229C328.414 300.611 331.551 298.047 331.604 297.9C331.698 297.612 332.954 294.319 332.665 294.128C332.515 294.027 331.852 292.685 330.633 291.133C321.967 288.694 327.483 294.722 328.218 294.998C328.218 294.998 317.65 292.559 317.089 304.066C317.013 305.262 317.095 306.462 317.333 307.635Z" fill="black"/>
<path d="M328.02 312.505L329.861 313.57L348.559 314.053C348.559 314.053 352.566 316.492 355.168 317.232C355.474 317.328 355.788 317.397 356.107 317.439C357.837 317.579 359.575 317.612 361.31 317.537C362.74 317.5 363.85 317.439 363.85 317.439C363.85 317.439 362.964 293.864 362.297 291.425C361.98 290.238 360.415 290.499 358.871 291.092C357.71 291.563 356.591 292.13 355.526 292.787C355.526 292.787 347.591 293.555 346.331 294.238C345.071 294.921 341.494 293.832 339.267 294.238C337.039 294.645 333.076 291.616 333.076 291.616C322.236 288.039 328.333 294.714 329.105 295.006C329.105 295.006 318.561 292.567 317.98 304.075C317.399 315.582 328.02 312.505 328.02 312.505Z" fill="#565387"/>
<path d="M355.021 303.408C355.225 308.286 359.025 314.338 361.289 317.537C362.72 317.5 363.83 317.439 363.83 317.439C363.83 317.439 362.944 293.864 362.277 291.425C361.96 290.238 360.395 290.499 358.85 291.092C356.993 294.588 354.859 299.477 355.021 303.408Z" fill="#565387"/>
<path opacity="0.1" d="M355.021 303.408C355.225 308.286 359.025 314.338 361.289 317.537C362.72 317.5 363.83 317.439 363.83 317.439C363.83 317.439 362.944 293.864 362.277 291.425C361.96 290.238 360.395 290.499 358.85 291.092C356.993 294.588 354.859 299.477 355.021 303.408Z" fill="black"/>
<path opacity="0.05" d="M351.826 304.054C353.111 308.761 353.099 314.041 355.147 317.232C355.454 317.328 355.768 317.397 356.086 317.439C357.817 317.579 359.554 317.612 361.289 317.537C362.72 317.5 363.829 317.439 363.829 317.439C363.829 317.439 362.943 293.864 362.277 291.425C361.96 290.238 360.395 290.499 358.85 291.092C357.69 291.563 356.571 292.13 355.505 292.787C355.505 292.787 350.184 298.03 351.826 304.054Z" fill="black"/>
<path opacity="0.1" d="M287.394 256.311C287.394 256.311 296.669 259.322 304.53 270.021L287.394 256.311Z" fill="black"/>
<g opacity="0.1">
<path opacity="0.1" d="M362.776 140.191C362.761 140.26 362.742 140.327 362.72 140.394C362.631 140.672 362.523 140.943 362.398 141.207C362.494 140.858 362.62 140.518 362.776 140.191Z" fill="black"/>
<path opacity="0.1" d="M310.294 135.496C310.454 134.818 310.696 134.162 311.013 133.541C310.964 133.708 310.911 133.874 310.871 134.045C310.379 136.15 310.789 138.358 311.302 140.463C311.566 141.548 311.924 142.723 312.862 143.329C314.305 144.251 316.521 143.447 317.708 144.69C318.455 145.483 318.496 146.889 319.472 147.377C319.835 147.535 320.236 147.582 320.626 147.511C323.195 147.145 324.691 144.26 327.158 143.447C328.564 142.991 330.109 143.288 331.487 143.821C332.038 143.991 332.533 144.308 332.918 144.739C333.731 145.808 333.166 147.385 333.548 148.678C334.08 150.474 336.226 151.19 338.084 151.421C339.941 151.653 342.035 151.787 343.274 153.194C344.152 154.185 344.376 155.632 344.197 156.937C344.089 157.393 344.089 157.868 344.197 158.323C344.709 159.774 347.221 159.543 347.855 158.413C348.335 157.579 348.193 156.888 349.323 156.657C350.083 156.498 350.981 156.819 351.688 157.063C353.697 157.756 355.816 158.074 357.94 158.002C359.675 157.941 361.48 157.596 362.846 156.515C363.47 156.017 363.982 155.394 364.35 154.685C364.031 155.975 363.304 157.127 362.277 157.97C360.911 159.043 359.11 159.4 357.371 159.457C355.248 159.529 353.131 159.211 351.123 158.518C350.412 158.275 349.497 157.953 348.754 158.112C347.624 158.344 347.766 159.035 347.29 159.868C346.632 161.014 344.124 161.23 343.608 159.778C343.5 159.323 343.5 158.848 343.608 158.392C343.787 157.08 343.567 155.641 342.689 154.649C341.445 153.247 339.352 153.112 337.494 152.881C335.637 152.649 333.491 151.934 332.962 150.137C332.576 148.84 333.157 147.263 332.332 146.194C331.946 145.764 331.45 145.447 330.897 145.276C329.52 144.743 327.975 144.463 326.569 144.902C324.097 145.715 322.605 148.609 320.037 148.966C319.647 149.037 319.245 148.99 318.882 148.832C317.907 148.345 317.866 146.938 317.118 146.15C315.943 144.906 313.716 145.707 312.277 144.784C311.334 144.178 310.976 143.004 310.712 141.918C310.208 139.809 309.798 137.602 310.294 135.496Z" fill="black"/>
</g>
<path opacity="0.1" d="M364.277 212.949C362.505 215.343 360.48 217.558 358.911 220.09C357.342 222.622 356.233 225.577 356.562 228.537C358.188 226.87 358.928 224.569 359.952 222.48C361.683 218.944 364.277 215.944 366.455 212.692C366.862 212.071 369.549 208.486 368.195 208.315C367.081 208.173 364.882 212.132 364.277 212.949Z" fill="black"/>
</g>
<defs>
<linearGradient id="paint0_linear" x1="334.389" y1="316.85" x2="334.389" y2="114.612" gradientUnits="userSpaceOnUse">
<stop stop-color="#808080" stop-opacity="0.25"/>
<stop offset="0.54" stop-color="#808080" stop-opacity="0.12"/>
<stop offset="1" stop-color="#808080" stop-opacity="0.1"/>
</linearGradient>
<clipPath id="clip0">
<rect width="463.601" height="320" fill="white"/>
</clipPath>
</defs>
</svg>
